<svg width="36" height="12" viewBox="0 0 36 12" fill="none" xmlns="http://www.w3.org/2000/svg">
<path d="M1 5.28636C0.605868 5.28636 0.286361 5.60587 0.286361 6C0.286361 6.39413 0.605868 6.71364 1 6.71364L1 5.28636ZM35.5046 6.50462C35.7833 6.22592 35.7833 5.77407 35.5046 5.49538L30.9631 0.95381C30.6844 0.675117 30.2325 0.675117 29.9538 0.95381C29.6751 1.2325 29.6751 1.68435 29.9538 1.96305L33.9908 6L29.9538 10.0369C29.6751 10.3156 29.6751 10.7675 29.9538 11.0462C30.2325 11.3249 30.6844 11.3249 30.9631 11.0462L35.5046 6.50462ZM1 6.71364L35 6.71364L35 5.28636L1 5.28636L1 6.71364Z" fill="black"/>
</svg>
