<svg width="19" height="20" viewBox="0 0 19 20" fill="none" xmlns="http://www.w3.org/2000/svg">
<g clip-path="url(#clip0_955:2568)">
<path d="M14.1364 0.468531L11.7226 0.4646C9.01084 0.4646 7.25834 2.28955 7.25834 5.11416L7.25834 7.25791L4.83139 7.25791C4.62167 7.25791 4.45184 7.43048 4.45184 7.64334L4.45184 10.7494C4.45184 10.9623 4.62186 11.1346 4.83139 11.1346L7.25834 11.1346L7.25834 18.9722C7.25834 19.1851 7.42817 19.3575 7.63789 19.3575L10.8044 19.3575C11.0141 19.3575 11.1839 19.1849 11.1839 18.9722L11.1839 11.1346L14.0216 11.1346C14.2313 11.1346 14.4011 10.9623 14.4011 10.7494L14.4023 7.64334C14.4023 7.54114 14.3622 7.44326 14.2912 7.37093C14.2201 7.2986 14.1233 7.25791 14.0226 7.25791L11.1839 7.25791L11.1839 5.44062C11.1839 4.56716 11.389 4.12375 12.51 4.12375L14.136 4.12316C14.3456 4.12316 14.5154 3.95059 14.5154 3.73792L14.5154 0.853766C14.5154 0.641297 14.3458 0.468924 14.1364 0.468531Z" fill="#333333"/>
</g>
<defs>
<clipPath id="clip0_955:2568">
<rect width="18.614" height="18.8929" fill="white" transform="translate(0.176758 0.4646)"/>
</clipPath>
</defs>
</svg>
