<svg width="19" height="20" viewBox="0 0 19 20" fill="none" xmlns="http://www.w3.org/2000/svg">
<g clip-path="url(#clip0_906:2075)">
<path d="M14.1365 0.468775L11.7227 0.464844C9.0109 0.464844 7.25841 2.2898 7.25841 5.1144L7.25841 7.25816L4.83145 7.25816C4.62173 7.25816 4.4519 7.43073 4.4519 7.64359L4.4519 10.7496C4.4519 10.9625 4.62193 11.1349 4.83145 11.1349L7.25841 11.1349L7.25841 18.9725C7.25841 19.1853 7.42823 19.3577 7.63795 19.3577L10.8044 19.3577C11.0142 19.3577 11.184 19.1851 11.184 18.9725L11.184 11.1349L14.0217 11.1349C14.2314 11.1349 14.4012 10.9625 14.4012 10.7496L14.4024 7.64359C14.4024 7.54138 14.3623 7.4435 14.2912 7.37117C14.2201 7.29884 14.1233 7.25816 14.0226 7.25816L11.184 7.25816L11.184 5.44087C11.184 4.56741 11.3891 4.12399 12.5101 4.12399L14.1361 4.1234C14.3456 4.1234 14.5155 3.95083 14.5155 3.73817L14.5155 0.85401C14.5155 0.641541 14.3458 0.469168 14.1365 0.468775Z" fill="white"/>
</g>
<defs>
<clipPath id="clip0_906:2075">
<rect width="18.614" height="18.8929" fill="white" transform="translate(0.176758 0.464844)"/>
</clipPath>
</defs>
</svg>
