<svg width="19" height="20" viewBox="0 0 19 20" fill="none" xmlns="http://www.w3.org/2000/svg">
<g clip-path="url(#clip0_906:2067)">
<path d="M18.5962 6.01939C18.5526 5.01554 18.3927 4.32541 18.1636 3.72739C17.9272 3.09261 17.5636 2.5243 17.0872 2.05186C16.6217 1.57206 16.0581 1.19924 15.44 0.963092C14.8474 0.730547 14.171 0.568213 13.1819 0.523953C12.1855 0.475945 11.8692 0.464844 9.342 0.464844C6.8148 0.464844 6.49848 0.475945 5.50575 0.520205C4.51672 0.564465 3.83677 0.726943 3.24773 0.959344C2.62218 1.19924 2.06226 1.56831 1.59679 2.05186C1.12408 2.5243 0.756901 3.09636 0.524096 3.72379C0.294984 4.32541 0.135046 5.01179 0.0914398 6.01564C0.0441402 7.02699 0.0332031 7.34806 0.0332031 9.91311C0.033203 12.4782 0.0441402 12.7992 0.0877467 13.8068C0.131353 14.8107 0.291433 15.5008 0.520545 16.0988C0.756901 16.7336 1.12408 17.3019 1.59679 17.7744C2.06226 18.2542 2.62588 18.627 3.24404 18.8631C3.83677 19.0957 4.51303 19.258 5.5022 19.3023C6.49479 19.3467 6.81125 19.3576 9.33844 19.3576C11.8656 19.3576 12.182 19.3467 13.1747 19.3023C14.1637 19.258 14.8437 19.0957 15.4327 18.8631C16.6837 18.3722 17.6727 17.3684 18.1563 16.0988C18.3853 15.4972 18.5454 14.8107 18.589 13.8068C18.6326 12.7992 18.6435 12.4782 18.6435 9.91311C18.6435 7.34806 18.6399 7.02699 18.5962 6.01939ZM16.92 13.733C16.88 14.6557 16.7273 15.154 16.6 15.4861C16.2872 16.3092 15.6436 16.9624 14.8327 17.2799C14.5055 17.409 14.011 17.564 13.1055 17.6045C12.1237 17.6489 11.8293 17.6599 9.34569 17.6599C6.8621 17.6599 6.56396 17.6489 5.58572 17.6045C4.67666 17.564 4.18577 17.409 3.85851 17.2799C3.45497 17.1285 3.08765 16.8886 2.78951 16.5749C2.48043 16.2685 2.24407 15.8994 2.09493 15.4899C1.96766 15.1577 1.81496 14.6557 1.77505 13.7368C1.7313 12.7403 1.72051 12.4413 1.72051 9.92047C1.72051 7.39967 1.7313 7.09706 1.77505 6.10431C1.81496 5.18163 1.96766 4.68338 2.09493 4.35121C2.24407 3.94148 2.48043 3.56881 2.7932 3.26605C3.09489 2.95234 3.45852 2.71244 3.8622 2.56121C4.18946 2.43203 4.68405 2.27705 5.58942 2.23639C6.5712 2.19213 6.8658 2.18103 9.34924 2.18103C11.8365 2.18103 12.131 2.19213 13.1092 2.23639C14.0183 2.27705 14.5092 2.43203 14.8364 2.56121C15.24 2.71244 15.6073 2.95234 15.9054 3.26605C16.2145 3.57241 16.4509 3.94148 16.6 4.35121C16.7273 4.68338 16.88 5.18523 16.92 6.10431C16.9636 7.10081 16.9746 7.39967 16.9746 9.92047C16.9746 12.4413 16.9636 12.7365 16.92 13.733Z" fill="white"/>
<path d="M9.34124 5.05957C6.70141 5.05957 4.55957 7.23335 4.55957 9.91288C4.55957 12.5924 6.70141 14.7662 9.34124 14.7662C11.9812 14.7662 14.1229 12.5924 14.1229 9.91288C14.1229 7.23335 11.9812 5.05957 9.34124 5.05957ZM9.34124 13.0611C7.62865 13.0611 6.23949 11.6513 6.23949 9.91288C6.23949 8.17449 7.62865 6.76466 9.34124 6.76466C11.054 6.76466 12.443 8.17449 12.443 9.91288C12.443 11.6513 11.054 13.0611 9.34124 13.0611Z" fill="white"/>
<path d="M15.429 4.86789C15.429 5.49358 14.9292 6.00092 14.3126 6.00092C13.6961 6.00092 13.1963 5.49358 13.1963 4.86789C13.1963 4.24205 13.6961 3.73486 14.3126 3.73486C14.9292 3.73486 15.429 4.24205 15.429 4.86789Z" fill="white"/>
</g>
<defs>
<clipPath id="clip0_906:2067">
<rect width="18.614" height="18.8929" fill="white" transform="translate(0 0.464844)"/>
</clipPath>
</defs>
</svg>
