<svg width="19" height="20" viewBox="0 0 19 20" fill="none" xmlns="http://www.w3.org/2000/svg">
<g clip-path="url(#clip0_955:2560)">
<path d="M18.5962 6.01915C18.5526 5.0153 18.3926 4.32516 18.1635 3.72715C17.9272 3.09237 17.5635 2.52406 17.0871 2.05161C16.6217 1.57182 16.0581 1.199 15.4399 0.962848C14.8473 0.730303 14.1709 0.567969 13.1819 0.523709C12.1855 0.475701 11.8691 0.4646 9.34193 0.4646C6.81474 0.4646 6.49842 0.475701 5.50569 0.519961C4.51666 0.56422 3.83671 0.726699 3.24767 0.9591C2.62212 1.199 2.0622 1.56807 1.59673 2.05161C1.12402 2.52406 0.75684 3.09612 0.524035 3.72354C0.294923 4.32516 0.134985 5.01155 0.0913788 6.0154C0.0440792 7.02675 0.033142 7.34781 0.033142 9.91287C0.033142 12.4779 0.0440791 12.799 0.0876857 13.8066C0.131292 14.8104 0.291372 15.5006 0.520484 16.0986C0.75684 16.7334 1.12402 17.3017 1.59673 17.7741C2.0622 18.2539 2.62581 18.6267 3.24398 18.8629C3.83671 19.0954 4.51297 19.2578 5.50214 19.302C6.49472 19.3464 6.81119 19.3574 9.33838 19.3574C11.8656 19.3574 12.1819 19.3464 13.1746 19.302C14.1637 19.2578 14.8436 19.0954 15.4326 18.8629C16.6836 18.372 17.6726 17.3681 18.1563 16.0986C18.3853 15.497 18.5453 14.8104 18.5889 13.8066C18.6325 12.799 18.6435 12.4779 18.6435 9.91287C18.6435 7.34781 18.6398 7.02675 18.5962 6.01915ZM16.92 13.7328C16.8799 14.6555 16.7272 15.1537 16.5999 15.4859C16.2872 16.3089 15.6436 16.9622 14.8327 17.2796C14.5054 17.4088 14.011 17.5638 13.1054 17.6043C12.1237 17.6487 11.8292 17.6597 9.34563 17.6597C6.86204 17.6597 6.5639 17.6487 5.58566 17.6043C4.6766 17.5638 4.18571 17.4088 3.85845 17.2796C3.45491 17.1282 3.08759 16.8883 2.78945 16.5746C2.48036 16.2683 2.24401 15.8992 2.09487 15.4896C1.9676 15.1575 1.8149 14.6555 1.77499 13.7365C1.73124 12.74 1.72045 12.441 1.72045 9.92022C1.72045 7.39942 1.73124 7.09681 1.77499 6.10406C1.8149 5.18138 1.9676 4.68313 2.09487 4.35097C2.24401 3.94124 2.48036 3.56856 2.79314 3.26581C3.09483 2.95209 3.45846 2.7122 3.86214 2.56096C4.1894 2.43179 4.68399 2.27681 5.58936 2.23615C6.57114 2.19189 6.86574 2.18079 9.34918 2.18079C11.8365 2.18079 12.1309 2.19189 13.1091 2.23615C14.0182 2.27681 14.5091 2.43179 14.8364 2.56096C15.2399 2.7122 15.6072 2.95209 15.9054 3.26581C16.2144 3.57217 16.4508 3.94124 16.5999 4.35097C16.7272 4.68313 16.8799 5.18499 16.92 6.10406C16.9636 7.10056 16.9745 7.39942 16.9745 9.92022C16.9745 12.441 16.9636 12.7363 16.92 13.7328Z" fill="#333333"/>
<path d="M9.34154 5.05957C6.70171 5.05957 4.55988 7.23335 4.55988 9.91288C4.55988 12.5924 6.70171 14.7662 9.34154 14.7662C11.9815 14.7662 14.1232 12.5924 14.1232 9.91288C14.1232 7.23335 11.9815 5.05957 9.34154 5.05957ZM9.34154 13.0611C7.62895 13.0611 6.23979 11.6513 6.23979 9.91288C6.23979 8.17449 7.62895 6.76466 9.34154 6.76466C11.0543 6.76466 12.4433 8.17449 12.4433 9.91288C12.4433 11.6513 11.0543 13.0611 9.34154 13.0611Z" fill="#333333"/>
<path d="M15.4287 4.86765C15.4287 5.49334 14.9289 6.00067 14.3123 6.00067C13.6958 6.00067 13.196 5.49334 13.196 4.86765C13.196 4.24181 13.6958 3.73462 14.3123 3.73462C14.9289 3.73462 15.4287 4.24181 15.4287 4.86765Z" fill="#333333"/>
</g>
<defs>
<clipPath id="clip0_955:2560">
<rect width="18.614" height="18.8929" fill="white" transform="translate(0 0.4646)"/>
</clipPath>
</defs>
</svg>
