<svg width="20" height="21" viewBox="0 0 20 21" fill="none" xmlns="http://www.w3.org/2000/svg">
<path d="M3.38306 1.82178C2.04782 1.82178 1.1748 2.7117 1.1748 3.88139C1.1748 5.02524 2.02181 5.94055 3.33182 5.94055L3.35716 5.94055C4.71853 5.94055 5.56575 5.02524 5.56575 3.88139C5.5403 2.7117 4.71853 1.82178 3.38306 1.82178Z" fill="white"/>
<path d="M1.40527 7.56787L5.30876 7.56787L5.30876 19.4876L1.40527 19.4876L1.40527 7.56787Z" fill="white"/>
<path d="M14.8902 7.28809C12.7844 7.28809 11.3723 9.29649 11.3723 9.29649L11.3723 7.56785L7.46875 7.56785L7.46875 19.4876L11.3721 19.4876L11.3721 12.8312C11.3721 12.4748 11.3976 12.119 11.5007 11.8642C11.7829 11.1526 12.4251 10.4154 13.5035 10.4154C14.916 10.4154 15.4809 11.5085 15.4809 13.1109L15.4809 19.4876L19.384 19.4876L19.384 12.653C19.384 8.9918 17.4582 7.28809 14.8902 7.28809Z" fill="white"/>
</svg>
