<svg width="20" height="21" viewBox="0 0 20 21" fill="none" xmlns="http://www.w3.org/2000/svg">
<path d="M3.38251 1.82178C2.04727 1.82178 1.17426 2.7117 1.17426 3.88139C1.17426 5.02524 2.02126 5.94055 3.33127 5.94055L3.35661 5.94055C4.71798 5.94055 5.5652 5.02524 5.5652 3.88139C5.53975 2.7117 4.71798 1.82178 3.38251 1.82178Z" fill="#333333"/>
<path d="M1.40503 7.56787L5.30852 7.56787L5.30852 19.4876L1.40503 19.4876L1.40503 7.56787Z" fill="#333333"/>
<path d="M14.8896 7.28821C12.7838 7.28821 11.3718 9.29661 11.3718 9.29661L11.3718 7.56797L7.4682 7.56797L7.4682 19.4877L11.3716 19.4877L11.3716 12.8313C11.3716 12.4749 11.397 12.1191 11.5002 11.8643C11.7824 11.1527 12.4245 10.4155 13.5029 10.4155C14.9154 10.4155 15.4803 11.5086 15.4803 13.111L15.4803 19.4877L19.3835 19.4877L19.3835 12.6532C19.3835 8.99192 17.4576 7.28821 14.8896 7.28821Z" fill="#333333"/>
</svg>
