<svg width="20" height="22" viewBox="0 0 20 22" fill="none" xmlns="http://www.w3.org/2000/svg">
<path d="M19.7662 19.7143L14.9155 14.7022C16.3584 13.003 17.112 10.7953 17.0198 8.53757C16.9276 6.27981 15.9967 4.14544 14.4204 2.57765C12.844 1.00986 10.7433 0.129103 8.55453 0.118265C6.36573 0.107428 4.25698 0.967339 2.66613 2.51945C1.07528 4.07156 0.124565 6.19661 0.0113966 8.45335C-0.101772 10.7101 0.631298 12.9251 2.05839 14.6386C3.48549 16.352 5.49695 17.4321 7.67514 17.6547C9.85332 17.8773 12.0309 17.2252 13.7556 15.8339L18.6422 20.8788C18.7916 21.0321 18.9936 21.1182 19.2042 21.1182C19.4148 21.1182 19.6168 21.0321 19.7662 20.8788C19.8403 20.8024 19.8991 20.7116 19.9392 20.6117C19.9794 20.5118 20 20.4047 20 20.2966C20 20.1884 19.9794 20.0813 19.9392 19.9814C19.8991 19.8815 19.8403 19.7907 19.7662 19.7143V19.7143ZM1.64272 8.933C1.64272 7.525 2.04713 6.14863 2.80482 4.97792C3.5625 3.80722 4.63942 2.89476 5.8994 2.35595C7.15938 1.81713 8.54582 1.67615 9.88341 1.95084C11.221 2.22552 12.4496 2.90354 13.414 3.89914C14.3783 4.89474 15.0351 6.16322 15.3011 7.54416C15.5672 8.9251 15.4306 10.3565 14.9087 11.6573C14.3868 12.9581 13.503 14.0699 12.3691 14.8522C11.2351 15.6344 9.90197 16.0519 8.53817 16.0519C6.71003 16.0498 4.95738 15.299 3.66468 13.9644C2.37199 12.6299 1.64483 10.8204 1.64272 8.933Z" fill="black"/>
</svg>
