<svg width="24" height="23" viewBox="0 0 24 23" fill="none" xmlns="http://www.w3.org/2000/svg">
<g clip-path="url(#clip0_955:2571)">
<path d="M20.6856 6.81675C21.6071 6.15262 22.3823 5.32366 23.014 4.36916L23.014 4.36821C22.1708 4.74291 21.2738 4.99208 20.3372 5.11283C21.3003 4.5292 22.0358 3.61208 22.3814 2.50712C21.4835 3.0505 20.4921 3.43383 19.4355 3.6485C18.5829 2.72658 17.3677 2.15637 16.0421 2.15637C13.4701 2.15637 11.3995 4.27525 11.3995 6.87233C11.3995 7.24608 11.4307 7.60545 11.5072 7.94758C7.64546 7.75591 4.22751 5.87758 1.93125 3.01504C1.53092 3.72133 1.29487 4.5292 1.29487 5.39841C1.29487 7.03141 2.12292 8.4785 3.35886 9.31704C2.61201 9.30266 1.88026 9.08225 1.25993 8.73629L1.25993 8.78804C1.25993 11.0794 2.86977 12.9827 4.98192 13.4216C4.6033 13.527 4.19163 13.5768 3.76392 13.5768C3.4665 13.5768 3.16625 13.5596 2.88488 13.4963C3.48632 15.3632 5.1953 16.7365 7.2253 16.7815C5.64473 18.036 3.63739 18.7921 1.46482 18.7921C1.08432 18.7921 0.718916 18.7748 0.353516 18.7279C2.41184 20.0743 4.84973 20.8439 7.48023 20.8439C15.6786 20.8439 21.0217 13.9017 20.6856 6.81675Z" fill="#333333"/>
</g>
<defs>
<clipPath id="clip0_955:2571">
<rect width="22.6605" height="23" fill="white" transform="translate(0.353516 0.00012207)"/>
</clipPath>
</defs>
</svg>
