<svg width="24" height="23" viewBox="0 0 24 23" fill="none" xmlns="http://www.w3.org/2000/svg">
<g clip-path="url(#clip0_906:2078)">
<path d="M20.6856 6.81662C21.6071 6.1525 22.3823 5.32354 23.014 4.36904L23.014 4.36808C22.1708 4.74279 21.2738 4.99196 20.3372 5.11271C21.3003 4.52908 22.0358 3.61196 22.3814 2.507C21.4835 3.05037 20.4921 3.43371 19.4355 3.64837C18.5829 2.72646 17.3677 2.15625 16.0421 2.15625C13.4701 2.15625 11.3995 4.27512 11.3995 6.87221C11.3995 7.24596 11.4307 7.60533 11.5072 7.94746C7.64546 7.75579 4.22751 5.87746 1.93125 3.01492C1.53092 3.72121 1.29487 4.52908 1.29487 5.39829C1.29487 7.03129 2.12292 8.47837 3.35886 9.31692C2.61201 9.30254 1.88026 9.08212 1.25993 8.73617L1.25993 8.78792C1.25993 11.0793 2.86977 12.9825 4.98192 13.4215C4.6033 13.5269 4.19163 13.5767 3.76392 13.5767C3.4665 13.5767 3.16625 13.5595 2.88488 13.4962C3.48632 15.363 5.1953 16.7363 7.2253 16.7814C5.64473 18.0358 3.63739 18.792 1.46482 18.792C1.08432 18.792 0.718916 18.7747 0.353516 18.7277C2.41184 20.0742 4.84973 20.8437 7.48023 20.8437C15.6786 20.8437 21.0217 13.9016 20.6856 6.81662Z" fill="white"/>
</g>
<defs>
<clipPath id="clip0_906:2078">
<rect width="22.6605" height="23" fill="white" transform="translate(0.353516)"/>
</clipPath>
</defs>
</svg>
